<svg width="68" height="68" viewBox="0 0 68 68" fill="none" xmlns="http://www.w3.org/2000/svg">
<path d="M34.0001 0.666748C52.4096 0.666748 67.3334 15.5906 67.3334 34.0001C67.3334 52.4096 52.4096 67.3334 34.0001 67.3334C15.5906 67.3334 0.666748 52.4096 0.666748 34.0001C0.666748 15.5906 15.5906 0.666748 34.0001 0.666748ZM44.7323 23.899L29.8334 38.7979L23.2678 32.2323C22.2915 31.256 20.7086 31.256 19.7323 32.2323C18.756 33.2086 18.756 34.7915 19.7323 35.7678L28.0657 44.1012C29.042 45.0775 30.6249 45.0775 31.6012 44.1012L48.2679 27.4345C49.2442 26.4582 49.2442 24.8753 48.2679 23.899C47.2915 22.9227 45.7086 22.9227 44.7323 23.899Z" fill="#4BA75E"/>
</svg>
