<svg width="400" height="400" viewBox="0 0 400 400" fill="none" xmlns="http://www.w3.org/2000/svg">
<g clip-path="url(#clip0_99_146495)">
<path d="M345.386 284.155C297.053 322.537 188.504 353.626 80.4877 297.281C-27.5284 240.936 -12.9375 104.256 51.1757 88.842C115.289 73.4283 140.171 118.533 236.387 81.759C375.175 28.7138 464.584 189.498 345.386 284.155Z" fill="#EBF6FF"/>
<g opacity="0.5">
<mask id="mask0_99_146495" style="mask-type:alpha" maskUnits="userSpaceOnUse" x="1" y="71" width="401" height="257">
<path d="M345.618 283.955C297.285 322.337 188.736 353.426 80.7199 297.081C-27.2962 240.736 -12.7053 104.055 51.4079 88.6418C115.521 73.2281 140.403 118.333 236.619 81.5588C375.407 28.5136 464.816 189.298 345.618 283.955Z" fill="#CCE3FF"/>
</mask>
<g mask="url(#mask0_99_146495)">
<path opacity="0.6" d="M443.077 285.1C434.961 287.127 426.831 289.027 418.673 290.731C410.515 292.434 402.328 293.954 394.142 295.319C377.85 298.026 361.419 299.812 344.925 300.668C340.825 300.865 336.739 301.006 332.639 301.076C330.596 301.076 328.553 301.076 326.524 301.076H323.466L320.408 300.992C312.264 300.809 304.177 300.302 296.159 299.387C288.187 298.521 280.266 297.229 272.432 295.516C270.473 295.122 268.557 294.601 266.613 294.109L260.751 292.589C258.807 292.068 256.876 291.491 254.932 290.942C252.987 290.393 251.071 289.745 249.141 289.154C233.817 284.26 218.951 278.033 204.715 270.547C176.239 255.613 150.51 235.71 126.782 213.443C114.919 202.309 103.463 190.627 92.1772 178.705L75.2691 160.731L66.815 151.736C63.997 148.743 61.1367 145.759 58.2341 142.785C46.9792 130.983 35.0383 119.853 22.4735 109.454C21.0645 110.552 19.6555 111.664 18.2465 112.79L17.866 113.114C29.9046 124.014 41.1532 135.754 51.5273 148.246C72.6624 173.117 92.2476 199.438 114.848 224.042C126.194 236.537 138.331 248.291 151.186 259.23C157.715 264.719 164.502 269.955 171.547 274.938C178.592 279.878 185.919 284.566 193.499 288.873C208.767 297.533 224.862 304.649 241.546 310.112C243.646 310.774 245.773 311.52 247.845 312.097C249.916 312.674 252.072 313.35 254.213 313.941L260.61 315.63C262.794 316.122 264.978 316.686 267.162 317.122C275.9 318.993 284.74 320.351 293.637 321.19C311.251 322.776 328.975 322.701 346.574 320.964C355.296 320.12 363.975 319.008 372.542 317.474C381.109 315.94 389.619 314.208 398.017 312.153C406.414 310.098 414.713 307.734 422.928 305.116C425.845 304.187 428.747 303.201 431.636 302.216C437.05 296.803 441.842 290.802 445.923 284.326L443.077 285.1Z" fill="#CCE3FF"/>
<path opacity="0.6" d="M13.107 212.696C-2.31036 205.375 -19.095 201.394 -36.1512 201.015C-36.5177 202.54 -36.8419 204.066 -37.166 205.591C-37.166 205.86 -37.2647 206.114 -37.321 206.368C-37.6029 207.71 -37.8566 209.038 -38.0962 210.38L-38.2231 211.1C-38.7868 214.25 -39.2519 217.414 -39.6325 220.579C-39.6325 220.734 -39.6325 220.903 -39.6325 221.073C-39.7875 222.486 -39.9425 223.813 -40.0694 225.184L-40.1539 226.144C-40.2808 227.444 -40.3794 228.757 -40.464 230.057C-40.464 230.311 -40.464 230.565 -40.464 230.82C-40.7459 233.89 -40.915 236.992 -40.9714 240.128V241.075C-40.9714 242.29 -40.9714 243.518 -40.9714 244.733C-40.9714 245.115 -40.9714 245.496 -40.9714 245.892C-40.9714 247.135 -40.9714 248.378 -40.8586 249.607C-40.8586 249.889 -40.8586 250.158 -40.8586 250.426C-40.8586 251.966 -40.7036 253.491 -40.5908 255.003C-40.5978 255.134 -40.5978 255.266 -40.5908 255.398C-40.4922 256.74 -40.3794 258.082 -40.2526 259.41L-40.1257 260.667C-40.013 261.74 -39.9002 262.814 -39.7593 263.873C-39.7593 264.325 -39.6606 264.777 -39.6043 265.215C-39.4492 266.388 -39.2801 267.56 -39.0969 268.719C-39.0969 269.015 -39.0264 269.298 -38.9841 269.58C-38.7586 270.993 -38.519 272.405 -38.2512 273.818L-38.0398 274.92C-37.8425 275.965 -37.6311 277.01 -37.4197 278.056C-37.321 278.55 -37.2083 279.044 -37.0955 279.553C-36.8982 280.485 -36.6727 281.403 -36.4613 282.378C-36.3486 282.872 -36.2217 283.367 -36.109 283.861C-35.8412 284.949 -35.5452 286.036 -35.2633 287.124C-35.1788 287.407 -35.1083 287.703 -35.0378 287.986C-34.6714 289.299 -34.2909 290.613 -33.8962 291.899C-33.7412 292.407 -33.5862 292.901 -33.417 293.396C-33.1633 294.229 -32.8956 295.077 -32.6137 295.896C-32.4305 296.461 -32.2472 297.012 -32.0499 297.549C-31.768 298.349 -31.4862 299.14 -31.2043 299.922C-31.007 300.459 -30.8237 300.981 -30.6264 301.504C-30.2318 302.549 -29.8231 303.58 -29.4003 304.612L-28.7097 306.307C-28.3432 307.168 -27.9768 308.03 -27.5962 308.878C-27.3566 309.428 -27.1029 309.965 -26.8493 310.516C-26.5956 311.067 -26.215 311.929 -25.8909 312.578C-25.5667 313.228 -25.3412 313.694 -25.0734 314.259L-24.0446 316.279C-23.7627 316.802 -23.509 317.339 -23.2271 317.847C-22.6493 318.935 -22.0573 320.023 -21.4372 321.082L-20.5775 322.495L-19.6895 323.978H142.151C79.7009 297.196 101.377 254.395 13.107 212.696Z" fill="#CCE3FF"/>
<path opacity="0.6" d="M385.334 72.5559C310.828 38.4015 298.445 -13.3229 241.646 -22.4316C241.858 -21.8403 242.069 -21.2631 242.266 -20.6718C263.185 45.8913 324.126 120.437 423.989 127.364C433.188 127.96 442.425 127.578 451.543 126.223C438.456 106.105 417.565 87.4088 385.334 72.5559Z" fill="#CCE3FF"/>
<path opacity="0.6" d="M451.859 274.016C454.489 268.835 456.841 263.518 458.904 258.086C460.398 254.185 461.962 249.706 463.441 244.777C451.337 243.213 439.276 241.397 427.27 239.143C380.898 230.693 334.962 216.214 295.747 189.37C230.549 144.723 174.412 83.2592 126.489 19.8804L124.516 21.9367L124.206 22.2606L122.05 24.5282C114.357 32.6406 106.24 41.4292 96.8982 50.7811L96.8137 50.8797L93.1924 54.443L92.9951 54.6261C90.501 57.0486 87.9083 59.5133 85.217 61.9921L84.7802 62.4005C83.512 63.5695 82.2156 64.7385 80.9052 65.9216L80.6938 66.0906C79.2566 67.4427 77.8005 68.7572 76.3257 70.0342H76.2271C74.818 71.2173 73.4089 72.4144 71.9998 73.6116L71.2671 74.2031C69.858 75.4284 68.3081 76.6538 66.7863 77.8932C94.5733 110.653 122.769 142.371 155.939 170.483C202.565 209.989 252.841 243.72 312.346 260.34C357.662 273.03 404.951 276.41 451.859 274.016Z" fill="#CCE3FF"/>
</g>
</g>
<g opacity="0.8">
<g opacity="0.8">
<path d="M371.906 173.224C368.235 183.621 361.695 183.617 357.75 181.82C356.84 181.406 356.511 180.32 356.907 179.402C361.383 169.03 367.59 169.153 371.125 171.01C371.916 171.426 372.203 172.382 371.906 173.224Z" fill="#4BA75E"/>
<path d="M370.265 172.808C367.244 175.621 360.366 181.171 357.017 180.869" stroke="#1F7832" stroke-width="1.08402" stroke-linecap="round"/>
</g>
<path d="M338.869 177.049C342.834 177.645 351.627 178.657 355.077 177.942C352.599 179.379 345.887 181.213 338.869 177.049Z" fill="#B8DFFE"/>
<path d="M346.424 189.924C350.048 188.21 358.176 184.704 361.685 184.393C358.898 183.732 351.942 183.913 346.424 189.924Z" fill="#B8DFFE"/>
<path d="M354.949 181.124C349.021 182.66 334.978 185.26 326.23 183.363C331.983 185.163 345.78 187.236 354.949 181.124Z" fill="#B8DFFE"/>
</g>
<path d="M59.8512 158.016L90.1521 273.795C90.2315 274.098 90.4381 274.353 90.7189 274.493C91.4431 274.855 92.2948 274.328 92.2948 273.519V147.719C92.2948 146.302 91.146 145.153 89.7288 145.153H69.7808C63.0567 145.153 58.1487 151.511 59.8512 158.016Z" fill="#00479B"/>
<path d="M324.654 265.14C326.707 268.888 334.187 274.565 347.688 267.285C364.565 258.185 332.92 241.915 324.654 265.14Z" fill="#4BA75E"/>
<path d="M373.652 222.931C367.206 248.23 351.781 249.61 342.096 246.213C339.862 245.43 338.854 242.938 339.593 240.689C347.944 215.277 362.608 214.248 371.339 217.877C373.292 218.689 374.174 220.881 373.652 222.931Z" fill="#4BA75E"/>
<path d="M319.712 282.998C320.653 270.896 329.731 243.156 358.517 229.007M325.516 263.191C329.726 261.842 339.609 259.443 345.452 260.64" stroke="#1F7832" stroke-width="2.56673" stroke-linecap="round"/>
<path d="M89.7203 241.848C87.6678 245.596 80.1875 251.272 66.6859 243.992C49.809 234.892 81.4538 218.623 89.7203 241.848Z" fill="#4BA75E"/>
<path d="M40.7224 199.639C47.1686 224.938 62.593 226.318 72.2787 222.921C74.5123 222.138 75.5202 219.646 74.7812 217.397C66.4301 191.985 51.7666 190.956 43.0356 194.585C41.0824 195.397 40.2002 197.589 40.7224 199.639Z" fill="#4BA75E"/>
<path d="M94.6627 259.706C93.7217 247.604 84.6431 219.863 55.8573 205.715M88.8587 239.899C84.6479 238.55 74.7656 236.151 68.9222 237.347" stroke="#1F7832" stroke-width="2.56673" stroke-linecap="round"/>
<path d="M327.012 164.088V272.629C327.012 286.092 316.098 297.006 302.634 297.006H112.796C100.463 297.006 90.4099 287.111 90.2145 274.779V132.885C90.2145 119.422 101.129 108.508 114.592 108.508H152.78C159.246 108.508 165.446 111.076 170.018 115.648L186.94 132.571C191.512 137.142 197.712 139.71 204.178 139.71H302.634C316.098 139.71 327.012 150.625 327.012 164.088Z" fill="#6CB6F2"/>
<path d="M209 175.5C215.75 175.5 221.251 180.85 221.492 187.542L221.5 188.002L235 188C236.933 188 238.5 189.567 238.5 191.5C238.5 193.336 237.086 194.842 235.287 194.988L235 195H232.666L229.412 238.14C229.077 242.573 225.382 246 220.936 246H197.064C192.618 246 188.923 242.573 188.588 238.14L185.332 195H183C181.164 195 179.658 193.586 179.512 191.787L179.5 191.5C179.5 189.664 180.914 188.158 182.713 188.012L183 188H196.5C196.5 181.403 201.61 176 208.088 175.533L208.542 175.508L209 175.5ZM216.5 201.5C215.206 201.5 214.141 202.484 214.013 203.744L214 204V228L214.013 228.256C214.141 229.516 215.206 230.5 216.5 230.5C217.794 230.5 218.859 229.516 218.987 228.256L219 228V204L218.987 203.744C218.859 202.484 217.794 201.5 216.5 201.5ZM201.5 201.5C200.206 201.5 199.141 202.484 199.013 203.744L199 204V228L199.013 228.256C199.141 229.516 200.206 230.5 201.5 230.5C202.794 230.5 203.859 229.516 203.987 228.256L204 228V204L203.987 203.744C203.859 202.484 202.794 201.5 201.5 201.5ZM209.335 182.51L209 182.5C206.075 182.5 203.683 184.783 203.51 187.665L203.5 188.002L214.5 188C214.5 185.075 212.217 182.683 209.335 182.51Z" fill="#00479B"/>
<g opacity="0.8">
<path d="M325.887 85.9614C317.425 109.927 302.35 109.917 293.256 105.776C291.159 104.822 290.4 102.317 291.313 100.202C301.631 76.2935 315.938 76.5773 324.086 80.8592C325.909 81.8171 326.572 84.0198 325.887 85.9614Z" fill="#4BA75E"/>
<path d="M322.105 85.0029C315.142 91.4867 299.286 104.28 291.568 103.584" stroke="#1F7832" stroke-width="2.49868" stroke-linecap="round"/>
</g>
<path d="M249.737 94.7798C258.877 96.1519 279.146 98.4846 287.099 96.8385C281.386 100.151 265.915 104.376 249.737 94.7798Z" fill="#B8DFFE"/>
<path d="M267.15 124.456C275.506 120.505 294.239 112.424 302.329 111.706C295.903 110.183 279.871 110.6 267.15 124.456Z" fill="#B8DFFE"/>
<path d="M286.802 104.17C273.138 107.713 240.768 113.705 220.605 109.332C233.865 113.482 265.667 118.26 286.802 104.17Z" fill="#B8DFFE"/>
<g opacity="0.9">
<path d="M103.578 66.4053C80.5335 55.6861 69.9948 66.4657 66.5916 75.8604C65.8068 78.0268 67.065 80.3213 69.2154 81.1489C93.5177 90.5013 103.324 80.0794 105.964 71.2616C106.555 69.289 105.445 67.2738 103.578 66.4053Z" fill="#4BA75E"/>
<path d="M101.617 69.7784C92.113 70.2182 71.879 72.5984 66.9773 78.6006" stroke="#1F7832" stroke-width="2.49868" stroke-linecap="round"/>
</g>
<path d="M44.0051 114.65C49.4187 107.159 61.9308 91.0444 68.6707 86.513C62.3072 88.2781 48.4651 96.3768 44.0051 114.65Z" fill="#B8DFFE"/>
<path d="M34.9809 81.4478C43.6492 78.241 62.5289 70.5079 68.7015 65.2298C65.2948 70.887 53.7813 82.0507 34.9809 81.4478Z" fill="#B8DFFE"/>
<path d="M63.2247 81.5963C51.134 88.8822 24.2074 107.821 13.2271 125.287C19.5374 112.909 38.3712 86.8415 63.2247 81.5963Z" fill="#B8DFFE"/>
</g>
<defs>
<clipPath id="clip0_99_146495">
<rect width="400" height="400" fill="white"/>
</clipPath>
</defs>
</svg>
